<svg width="471" height="350" viewBox="0 0 471 350" fill="none" xmlns="http://www.w3.org/2000/svg">
<path d="M471 307.573H0V307.809H471V307.573Z" fill="#EBEBEB"/>
<path d="M423.805 322.69H392.606V322.926H423.805V322.69Z" fill="#EBEBEB"/>
<path d="M312.009 325.245H303.823V325.481H312.009V325.245Z" fill="#EBEBEB"/>
<path d="M391.664 313.971H373.587V314.206H391.664V313.971Z" fill="#EBEBEB"/>
<path d="M90.1022 315.55H49.4172V315.785H90.1022V315.55Z" fill="#EBEBEB"/>
<path d="M104.458 315.55H98.4951V315.785H104.458V315.55Z" fill="#EBEBEB"/>
<path d="M212.091 319.514H123.845V319.749H212.091V319.514Z" fill="#EBEBEB"/>
<path d="M223.254 265.675H41.3635C39.9386 265.672 38.5729 265.106 37.5662 264.1C36.5595 263.095 35.9941 261.732 35.9941 260.311V5.31726C36.0065 3.90435 36.5774 2.55339 37.5828 1.5578C38.5881 0.562218 39.9467 0.00242037 41.3635 0H223.254C224.681 0 226.049 0.565158 227.058 1.57115C228.066 2.57713 228.633 3.94155 228.633 5.36423V260.311C228.633 261.733 228.066 263.098 227.058 264.104C226.049 265.11 224.681 265.675 223.254 265.675V265.675ZM41.3635 0.18789C40.0011 0.190378 38.6953 0.731888 37.7328 1.69356C36.7702 2.65523 36.2296 3.95849 36.2296 5.31726V260.311C36.2296 261.669 36.7702 262.973 37.7328 263.934C38.6953 264.896 40.0011 265.438 41.3635 265.44H223.254C224.618 265.438 225.924 264.896 226.888 263.935C227.852 262.974 228.395 261.67 228.398 260.311V5.31726C228.395 3.95763 227.852 2.65439 226.888 1.69299C225.924 0.731583 224.618 0.190373 223.254 0.18789H41.3635Z" fill="#EBEBEB"/>
<path d="M427.018 265.675H245.118C243.692 265.672 242.326 265.106 241.317 264.101C240.309 263.096 239.742 261.733 239.739 260.311V5.31726C239.754 3.9035 240.327 2.55254 241.334 1.55722C242.341 0.56189 243.7 0.00239398 245.118 0H427.018C428.433 0.00488934 429.79 0.56578 430.793 1.5611C431.796 2.55642 432.366 3.90598 432.378 5.31726V260.311C432.378 261.73 431.814 263.092 430.809 264.097C429.805 265.103 428.442 265.67 427.018 265.675V265.675ZM245.118 0.18789C243.755 0.190373 242.448 0.731583 241.484 1.69299C240.52 2.65439 239.977 3.95763 239.975 5.31726V260.311C239.977 261.67 240.52 262.974 241.484 263.935C242.448 264.896 243.755 265.438 245.118 265.44H427.018C428.382 265.438 429.688 264.896 430.652 263.935C431.616 262.974 432.159 261.67 432.162 260.311V5.31726C432.159 3.95763 431.616 2.65439 430.652 1.69299C429.688 0.731583 428.382 0.190373 427.018 0.18789H245.118Z" fill="#EBEBEB"/>
<path d="M401.236 44.707H278.653V179.978H401.236V44.707Z" fill="#E9E9E9"/>
<path d="M396.158 50.0625H284.05V174.896H396.158V50.0625Z" fill="#F5F5F5"/>
<path d="M315.73 50.0625L284.05 168.404V104.334L298.548 50.0625H315.73Z" fill="white"/>
<path d="M329.897 50.0625L296.475 174.896H290.173L323.595 50.0625H329.897Z" fill="white"/>
<path d="M396.158 84.1074V148.178L389.065 174.895H371.874L396.158 84.1074Z" fill="white"/>
<path d="M342.116 44.707H337.764V179.978H342.116V44.707Z" fill="#E9E9E9"/>
<path d="M398.88 72.1484H280.781V76.4887H398.88V72.1484Z" fill="#E9E9E9"/>
<path d="M192.347 44.707H69.7644V179.978H192.347V44.707Z" fill="#E9E9E9"/>
<path d="M187.27 50.0625H75.1626V174.896H187.27V50.0625Z" fill="#F5F5F5"/>
<path d="M106.842 50.0625L75.1626 168.404V104.334L89.66 50.0625H106.842Z" fill="white"/>
<path d="M121.009 50.0625L87.5869 174.896H81.2849L114.707 50.0625H121.009Z" fill="white"/>
<path d="M187.27 84.1074V148.178L180.176 174.895H162.985L187.27 84.1074Z" fill="white"/>
<path d="M133.228 44.707H128.875V179.978H133.228V44.707Z" fill="#E9E9E9"/>
<path d="M189.992 72.1484H71.8938V76.4887H189.992V72.1484Z" fill="#E9E9E9"/>
<path d="M257.326 21.3434C257.326 21.3434 281.658 54.6749 329.05 54.6749C376.442 54.6749 406.294 12.9072 406.294 12.9072L410.712 16.8435C410.712 16.8435 405.493 84.8029 412.596 95.9823C419.698 107.162 402.535 115.635 409.619 130.911C416.703 146.186 409.242 148.76 410.363 165.67C411.484 182.58 405.144 202.882 406.256 219.688C407.367 236.495 410.382 237.679 410.382 237.679L405.163 242.977C405.163 242.977 393.982 226.593 400.689 201.04C407.396 175.488 395.847 175.488 401.81 163.049C407.773 150.611 411.126 144.26 405.163 130.883C399.2 117.505 412.238 113.785 408.517 100.05C404.796 86.3154 401.433 42.744 406.633 21.3153C406.633 21.3153 382.235 60.1143 329.031 60.1143C275.827 60.1143 254.961 26.9143 254.961 26.9143C254.961 26.9143 259.803 70.7206 254.961 79.2602C250.119 87.7997 255.329 91.2945 252.352 102.371C249.375 113.447 264.127 137.797 257.307 147.173C250.487 156.548 247.227 162.251 251.947 175.948C256.666 189.645 244.053 197.226 249.724 211.788C255.395 226.349 246.37 240.262 246.37 240.262L240.106 237.679C240.106 237.679 248.867 225.682 242.414 207.466C235.961 189.25 252.116 188.123 246.841 172.707C241.566 157.29 257.882 149.7 252.145 136.068C246.408 122.437 243.544 112.836 246.841 97.5512C250.138 82.2664 246.229 81.1673 249.667 72.2425C253.106 63.3178 253.322 39.935 250.788 30.4373C250.798 30.4279 252.597 21.7568 257.326 21.3434Z" fill="#E0E0E0"/>
<path d="M255.621 16.2244C255.621 16.2244 279.228 46.3806 327.684 46.3806C376.141 46.3806 404.872 8.75586 404.872 8.75586L409.516 12.2318C409.516 12.2318 407.142 74.5733 415.027 85.2548C423.005 96.0772 405.352 104.363 413.557 119.507C421.903 134.895 414.028 137.507 416.072 154.915C418.163 172.67 412.21 194.371 414.301 212.756C416.43 231.489 419.859 232.879 419.859 232.879L414.207 238.863C414.207 238.863 400.802 220.413 407.142 192.417C413.293 165.22 400.68 165.173 406.624 152.228C412.483 139.433 415.78 132.932 408.772 119.507C401.867 106.27 415.469 102.597 410.901 89.2099C406.407 76.0577 401.16 35.4643 405.569 16.2244C405.569 16.2244 382.188 51.4348 327.665 51.4348C273.142 51.4348 253.021 21.2223 253.021 21.2223C253.021 21.2223 256.318 61.3178 250.987 69.35C245.655 77.3823 250.892 80.7925 247.322 91.4552C243.752 102.118 258.372 126.44 250.695 135.938C243.017 145.436 239.155 151.401 243.63 165.681C248.189 180.195 233.908 188.303 239.466 204.104C245.118 220.178 234.228 235.782 234.228 235.782L227.267 232.879C227.267 232.879 237.78 219.445 231.534 199.407C225.421 179.772 243.234 178.56 238.194 162.289C233.249 146.319 251.184 138.521 245.627 124.711C240.144 111.071 237.573 101.658 241.746 86.8049C245.843 72.1871 241.849 71.1538 245.796 62.7363C249.743 54.3189 250.883 32.8808 248.688 24.3412C248.688 24.3412 250.845 16.5908 255.621 16.2244Z" fill="#F0F0F0"/>
<path d="M213.674 21.3434C213.674 21.3434 189.342 54.6749 141.95 54.6749C94.5577 54.6749 64.7057 12.9072 64.7057 12.9072L60.2877 16.8435C60.2877 16.8435 65.5064 84.8029 58.4037 95.9823C51.301 107.162 68.4643 115.635 61.3804 130.911C54.2966 146.186 61.7572 148.76 60.6362 165.67C59.5153 182.58 65.8549 202.882 64.7434 219.688C63.6318 236.495 60.6174 237.679 60.6174 237.679L65.8361 242.977C65.8361 242.977 77.0176 226.593 70.3106 201.04C63.6035 175.488 75.1525 175.488 69.1896 163.049C63.2267 150.611 59.8732 144.26 65.8361 130.883C71.7989 117.505 58.7617 113.785 62.4826 100.05C66.2035 86.3154 69.5664 42.744 64.3666 21.3153C64.3666 21.3153 88.7644 60.1143 141.969 60.1143C195.173 60.1143 216.038 26.9143 216.038 26.9143C216.038 26.9143 211.196 70.7206 216.038 79.2602C220.88 87.7997 215.661 91.2945 218.647 102.371C221.633 113.447 206.872 137.797 213.692 147.173C220.512 156.548 223.772 162.251 219.052 175.948C214.333 189.645 226.946 197.226 221.275 211.788C215.605 226.349 224.629 240.262 224.629 240.262L230.912 237.688C230.912 237.688 222.152 225.691 228.604 207.476C235.057 189.26 218.902 188.132 224.177 172.716C229.452 157.3 213.137 149.709 218.873 136.078C224.61 122.446 227.474 112.845 224.177 97.5606C220.88 82.2758 224.789 81.1767 221.351 72.2519C217.913 63.3272 217.696 39.9444 220.23 30.4467C220.202 30.4279 218.402 21.7568 213.674 21.3434Z" fill="#E0E0E0"/>
<path d="M220.089 16.2244C220.089 16.2244 196.483 46.3806 148.026 46.3806C99.5697 46.3806 70.8387 8.75586 70.8387 8.75586L66.1947 12.213C66.1947 12.213 68.5685 74.5546 60.684 85.236C52.7523 96.0772 70.3583 104.363 62.1723 119.507C53.8262 134.895 61.7013 137.507 59.6572 154.915C57.566 172.67 63.5194 194.371 61.4282 212.756C59.2992 231.489 55.8704 232.879 55.8704 232.879L61.5224 238.863C61.5224 238.863 74.927 220.413 68.5874 192.417C62.4361 165.22 75.0495 165.173 69.1055 152.228C63.2462 139.433 59.9492 132.932 66.9577 119.507C73.8626 106.27 60.2601 102.597 64.8288 89.2099C69.3221 76.0577 74.5691 35.4643 70.1605 16.2244C70.1605 16.2244 93.5409 51.4348 148.064 51.4348C202.587 51.4348 222.708 21.2223 222.708 21.2223C222.708 21.2223 219.411 61.3178 224.743 69.35C230.074 77.3823 224.837 80.7925 228.407 91.4552C231.977 102.118 217.357 126.44 225.035 135.938C232.712 145.436 236.574 151.401 232.1 165.681C227.54 180.195 241.821 188.303 236.263 204.104C230.611 220.178 241.501 235.782 241.501 235.782L248.462 232.879C248.462 232.879 237.95 219.445 244.195 199.407C250.309 179.772 232.495 178.56 237.535 162.289C242.481 146.319 224.545 138.521 230.103 124.711C235.585 111.071 238.157 101.658 233.984 86.8049C229.886 72.1871 233.88 71.1538 229.933 62.7363C225.986 54.3189 224.827 32.8808 227.022 24.3412C227.022 24.3412 224.865 16.5908 220.089 16.2244Z" fill="#F0F0F0"/>
<path d="M96.3103 306.729H90.6018V279.128L93.4466 276.751L96.3103 279.128V306.729Z" fill="#F0F0F0"/>
<path d="M93.4554 265.862C93.4554 265.862 100.831 277.211 93.4554 277.211C86.0795 277.211 93.4554 265.862 93.4554 265.862Z" fill="#E0E0E0"/>
<path d="M93.4559 271.077C93.4559 271.077 97.1485 276.714 93.4559 276.714C89.7632 276.714 93.4559 271.077 93.4559 271.077Z" fill="#F0F0F0"/>
<path d="M114.679 306.729H108.971V279.128L111.816 276.751L114.679 279.128V306.729Z" fill="#F0F0F0"/>
<path d="M111.825 265.862C111.825 265.862 119.201 277.211 111.825 277.211C104.449 277.211 111.825 265.862 111.825 265.862Z" fill="#E0E0E0"/>
<path d="M111.824 271.077C111.824 271.077 115.517 276.714 111.824 276.714C108.132 276.714 111.824 271.077 111.824 271.077Z" fill="#F0F0F0"/>
<path d="M133.048 306.729H127.339V279.128L130.184 276.751L133.048 279.128V306.729Z" fill="#F0F0F0"/>
<path d="M130.194 265.862C130.194 265.862 137.57 277.211 130.194 277.211C122.818 277.211 130.194 265.862 130.194 265.862Z" fill="#E0E0E0"/>
<path d="M130.194 271.077C130.194 271.077 133.887 276.714 130.194 276.714C126.502 276.714 130.194 271.077 130.194 271.077Z" fill="#F0F0F0"/>
<path d="M151.417 306.729H145.708V279.128L148.563 276.751L151.417 279.128V306.729Z" fill="#F0F0F0"/>
<path d="M148.563 265.862C148.563 265.862 155.939 277.211 148.563 277.211C141.187 277.211 148.563 265.862 148.563 265.862Z" fill="#E0E0E0"/>
<path d="M148.563 271.077C148.563 271.077 152.256 276.714 148.563 276.714C144.87 276.714 148.563 271.077 148.563 271.077Z" fill="#F0F0F0"/>
<path d="M169.796 306.729H164.078V279.128L166.932 276.751L169.796 279.128V306.729Z" fill="#F0F0F0"/>
<path d="M166.931 265.862C166.931 265.862 174.307 277.211 166.931 277.211C159.556 277.211 166.931 265.862 166.931 265.862Z" fill="#E0E0E0"/>
<path d="M166.932 271.077C166.932 271.077 170.625 276.714 166.932 276.714C163.24 276.714 166.932 271.077 166.932 271.077Z" fill="#F0F0F0"/>
<path d="M188.165 306.729H182.447V279.128L185.301 276.751L188.165 279.128V306.729Z" fill="#F0F0F0"/>
<path d="M185.301 265.862C185.301 265.862 192.677 277.211 185.301 277.211C177.925 277.211 185.301 265.862 185.301 265.862Z" fill="#E0E0E0"/>
<path d="M185.3 271.077C185.3 271.077 188.993 276.714 185.3 276.714C181.608 276.714 185.3 271.077 185.3 271.077Z" fill="#F0F0F0"/>
<path d="M206.533 306.729H200.815V279.128L203.67 276.751L206.533 279.128V306.729Z" fill="#F0F0F0"/>
<path d="M203.67 265.862C203.67 265.862 211.046 277.211 203.67 277.211C196.294 277.211 203.67 265.862 203.67 265.862Z" fill="#E0E0E0"/>
<path d="M203.67 271.077C203.67 271.077 207.363 276.714 203.67 276.714C199.977 276.714 203.67 271.077 203.67 271.077Z" fill="#F0F0F0"/>
<path d="M224.903 306.729H219.185V279.128L222.039 276.751L224.903 279.128V306.729Z" fill="#F0F0F0"/>
<path d="M222.038 265.862C222.038 265.862 229.423 277.211 222.038 277.211C214.653 277.211 222.038 265.862 222.038 265.862Z" fill="#E0E0E0"/>
<path d="M222.039 271.077C222.039 271.077 225.732 276.714 222.039 276.714C218.346 276.714 222.039 271.077 222.039 271.077Z" fill="#F0F0F0"/>
<path d="M243.272 306.729H237.554V279.128L240.408 276.751L243.272 279.128V306.729Z" fill="#F0F0F0"/>
<path d="M240.408 265.862C240.408 265.862 247.793 277.211 240.408 277.211C233.023 277.211 240.408 265.862 240.408 265.862Z" fill="#E0E0E0"/>
<path d="M240.408 271.077C240.408 271.077 244.1 276.714 240.408 276.714C236.715 276.714 240.408 271.077 240.408 271.077Z" fill="#F0F0F0"/>
<path d="M261.64 306.729H255.922V279.128L258.777 276.751L261.64 279.128V306.729Z" fill="#F0F0F0"/>
<path d="M258.777 265.862C258.777 265.862 266.162 277.211 258.777 277.211C251.392 277.211 258.777 265.862 258.777 265.862Z" fill="#E0E0E0"/>
<path d="M258.777 271.077C258.777 271.077 262.47 276.714 258.777 276.714C255.084 276.714 258.777 271.077 258.777 271.077Z" fill="#F0F0F0"/>
<path d="M280.009 306.729H274.292V279.128L277.146 276.751L280.009 279.128V306.729Z" fill="#F0F0F0"/>
<path d="M277.155 265.862C277.155 265.862 284.531 277.211 277.155 277.211C269.779 277.211 277.155 265.862 277.155 265.862Z" fill="#E0E0E0"/>
<path d="M277.155 271.077C277.155 271.077 280.838 276.714 277.155 276.714C273.471 276.714 277.155 271.077 277.155 271.077Z" fill="#F0F0F0"/>
<path d="M298.378 306.729H292.66V279.128L295.514 276.751L298.378 279.128V306.729Z" fill="#F0F0F0"/>
<path d="M295.524 265.862C295.524 265.862 302.9 277.211 295.524 277.211C288.148 277.211 295.524 265.862 295.524 265.862Z" fill="#E0E0E0"/>
<path d="M295.525 271.077C295.525 271.077 299.208 276.714 295.525 276.714C291.841 276.714 295.525 271.077 295.525 271.077Z" fill="#F0F0F0"/>
<path d="M316.748 306.729H311.03V279.128L313.884 276.751L316.748 279.128V306.729Z" fill="#F0F0F0"/>
<path d="M313.893 265.862C313.893 265.862 321.269 277.211 313.893 277.211C306.517 277.211 313.893 265.862 313.893 265.862Z" fill="#E0E0E0"/>
<path d="M313.893 271.077C313.893 271.077 317.577 276.714 313.893 276.714C310.21 276.714 313.893 271.077 313.893 271.077Z" fill="#F0F0F0"/>
<path d="M335.117 306.729H329.399V279.128L332.253 276.751L335.117 279.128V306.729Z" fill="#F0F0F0"/>
<path d="M332.263 265.862C332.263 265.862 339.638 277.211 332.263 277.211C324.887 277.211 332.263 265.862 332.263 265.862Z" fill="#E0E0E0"/>
<path d="M332.262 271.077C332.262 271.077 335.946 276.714 332.262 276.714C328.579 276.714 332.262 271.077 332.262 271.077Z" fill="#F0F0F0"/>
<path d="M353.485 306.729H347.767V279.128L350.621 276.751L353.485 279.128V306.729Z" fill="#F0F0F0"/>
<path d="M350.631 265.862C350.631 265.862 358.007 277.211 350.631 277.211C343.255 277.211 350.631 265.862 350.631 265.862Z" fill="#E0E0E0"/>
<path d="M350.631 271.077C350.631 271.077 354.314 276.714 350.631 276.714C346.948 276.714 350.631 271.077 350.631 271.077Z" fill="#F0F0F0"/>
<path d="M371.855 306.729H366.146V279.128L368.991 276.751L371.855 279.128V306.729Z" fill="#F0F0F0"/>
<path d="M369 265.862C369 265.862 376.376 277.211 369 277.211C361.624 277.211 369 265.862 369 265.862Z" fill="#E0E0E0"/>
<path d="M369.001 271.077C369.001 271.077 372.684 276.714 369.001 276.714C365.318 276.714 369.001 271.077 369.001 271.077Z" fill="#F0F0F0"/>
<path d="M235.5 349.999C336.372 349.999 418.145 345.238 418.145 339.365C418.145 333.492 336.372 328.73 235.5 328.73C134.628 328.73 52.8557 333.492 52.8557 339.365C52.8557 345.238 134.628 349.999 235.5 349.999Z" fill="#F5F5F5"/>
<path d="M384.468 262.678C384.468 262.678 389.102 271.311 384.468 271.311C379.833 271.311 384.468 262.678 384.468 262.678Z" fill="#376DC8"/>
<path opacity="0.3" d="M384.468 262.678C384.468 262.678 389.102 271.311 384.468 271.311C379.833 271.311 384.468 262.678 384.468 262.678Z" fill="white"/>
<path opacity="0.4" d="M384.467 266.717C384.467 266.717 386.785 271.029 384.467 271.029C382.15 271.029 384.467 266.717 384.467 266.717Z" fill="white"/>
<path d="M385.353 271.311C385.353 271.687 385.353 272.072 385.287 272.448C385.221 272.824 385.155 273.256 385.07 273.641C384.986 274.026 384.91 274.195 384.807 274.468C384.703 274.74 384.665 274.862 384.581 275.06C383.844 276.764 382.624 278.216 381.069 279.236C379.515 280.256 377.695 280.799 375.834 280.799C373.973 280.799 372.153 280.256 370.599 279.236C369.045 278.216 367.824 276.764 367.088 275.06C367.012 274.862 366.927 274.665 366.862 274.468C366.763 274.197 366.678 273.921 366.607 273.641C366.526 273.244 366.469 272.842 366.438 272.438C366.392 272.061 366.37 271.682 366.372 271.302L385.353 271.311Z" fill="#376DC8"/>
<path opacity="0.3" d="M385.278 272.439C385.231 272.843 385.146 273.247 385.061 273.633H366.598C366.521 273.238 366.467 272.84 366.438 272.439H385.278Z" fill="white"/>
<path opacity="0.3" d="M384.806 274.469C384.737 274.663 384.662 274.86 384.58 275.061H367.087C367.012 274.863 366.927 274.666 366.861 274.469H384.806Z" fill="white"/>
<path d="M382.584 340.895H379.249L376.423 286.313H382.584V340.895Z" fill="#376DC8"/>
<path opacity="0.2" d="M382.584 340.895H379.249L376.423 286.313H382.584V340.895Z" fill="white"/>
<path d="M368.887 340.895H372.222L375.048 286.313H368.887V340.895Z" fill="#376DC8"/>
<path d="M340.627 340.895H343.962L356.208 286.313H350.047L340.627 340.895Z" fill="#376DC8"/>
<path d="M410.844 340.895H407.509L395.263 286.313H401.424L410.844 340.895Z" fill="#376DC8"/>
<path opacity="0.4" d="M340.627 340.895H343.962L356.208 286.313H350.047L340.627 340.895Z" fill="white"/>
<path opacity="0.4" d="M410.844 340.895H407.509L395.263 286.313H401.424L410.844 340.895Z" fill="white"/>
<path opacity="0.6" d="M368.887 340.895H372.222L375.048 286.313H368.887V340.895Z" fill="white"/>
<path d="M347.579 288.644H403.892C404.875 288.644 405.672 287.849 405.672 286.868V281.955C405.672 280.974 404.875 280.179 403.892 280.179H347.579C346.596 280.179 345.799 280.974 345.799 281.955V286.868C345.799 287.849 346.596 288.644 347.579 288.644Z" fill="#376DC8"/>
<path opacity="0.7" d="M347.579 288.644H403.892C404.875 288.644 405.672 287.849 405.672 286.868V281.955C405.672 280.974 404.875 280.179 403.892 280.179H347.579C346.596 280.179 345.799 280.974 345.799 281.955V286.868C345.799 287.849 346.596 288.644 347.579 288.644Z" fill="white"/>
<path d="M86.3724 262.678C86.3724 262.678 81.7283 271.311 86.3724 271.311C91.0164 271.311 86.3724 262.678 86.3724 262.678Z" fill="#376DC8"/>
<path opacity="0.3" d="M86.3724 262.678C86.3724 262.678 81.7283 271.311 86.3724 271.311C91.0164 271.311 86.3724 262.678 86.3724 262.678Z" fill="white"/>
<path opacity="0.4" d="M86.3727 266.717C86.3727 266.717 84.046 271.029 86.3727 271.029C88.6995 271.029 86.3727 266.717 86.3727 266.717Z" fill="white"/>
<path d="M85.4773 271.311C85.4789 271.691 85.5041 272.07 85.5527 272.447C85.5972 272.849 85.6664 273.247 85.7599 273.64C85.8447 273.922 85.92 274.195 86.0237 274.467C86.1273 274.74 86.1744 274.862 86.2497 275.059C86.986 276.763 88.2067 278.215 89.7611 279.235C91.3155 280.255 93.1355 280.799 94.9962 280.799C96.857 280.799 98.6769 280.255 100.231 279.235C101.786 278.215 103.006 276.763 103.743 275.059C103.818 274.862 103.903 274.664 103.969 274.467C104.035 274.27 104.148 273.922 104.233 273.64C104.326 273.247 104.395 272.849 104.44 272.447C104.488 272.07 104.513 271.691 104.515 271.311H85.4773Z" fill="#376DC8"/>
<path opacity="0.3" d="M85.553 272.439C85.5975 272.841 85.6668 273.239 85.7602 273.633H104.233C104.326 273.239 104.396 272.841 104.44 272.439H85.553Z" fill="white"/>
<path opacity="0.3" d="M86.0239 274.469C86.0899 274.666 86.1746 274.863 86.25 275.061H103.743C103.818 274.863 103.903 274.666 103.969 274.469H86.0239Z" fill="white"/>
<path d="M88.2471 340.895H91.5818L94.4078 286.313H88.2471V340.895Z" fill="#376DC8"/>
<path opacity="0.2" d="M88.2471 340.895H91.5818L94.4078 286.313H88.2471V340.895Z" fill="white"/>
<path d="M101.944 340.895H98.609L95.783 286.313H101.944V340.895Z" fill="#376DC8"/>
<path d="M130.203 340.895H126.869L114.623 286.313H120.783L130.203 340.895Z" fill="#376DC8"/>
<path d="M59.9868 340.895H63.3215L75.5675 286.313H69.4068L59.9868 340.895Z" fill="#376DC8"/>
<path opacity="0.4" d="M130.203 340.895H126.869L114.623 286.313H120.783L130.203 340.895Z" fill="white"/>
<path opacity="0.4" d="M59.9868 340.895H63.3215L75.5675 286.313H69.4068L59.9868 340.895Z" fill="white"/>
<path opacity="0.6" d="M101.944 340.895H98.609L95.783 286.313H101.944V340.895Z" fill="white"/>
<path d="M123.242 280.171H66.9388C65.9556 280.171 65.1584 280.966 65.1584 281.946V286.86C65.1584 287.84 65.9556 288.635 66.9388 288.635H123.242C124.225 288.635 125.023 287.84 125.023 286.86V281.946C125.023 280.966 124.225 280.171 123.242 280.171Z" fill="#376DC8"/>
<path opacity="0.7" d="M123.242 280.171H66.9388C65.9556 280.171 65.1584 280.966 65.1584 281.946V286.86C65.1584 287.84 65.9556 288.635 66.9388 288.635H123.242C124.225 288.635 125.023 287.84 125.023 286.86V281.946C125.023 280.966 124.225 280.171 123.242 280.171Z" fill="white"/>
<path d="M280.716 83.9295C277.437 91.229 272.172 113.766 256.77 119.459C256.77 119.459 248.198 148.582 278.379 153.834C308.561 159.085 339.609 140.897 338.253 119.459C338.253 119.459 318.386 116.989 314.157 113.024C309.927 109.06 308.194 84.2771 305.151 80.6884C302.108 77.0998 287.234 69.3024 280.716 83.9295Z" fill="#376DC8"/>
<path opacity="0.5" d="M280.716 83.9295C277.437 91.229 272.172 113.766 256.77 119.459C256.77 119.459 248.198 148.582 278.379 153.834C308.561 159.085 339.609 140.897 338.253 119.459C338.253 119.459 318.386 116.989 314.157 113.024C309.927 109.06 308.194 84.2771 305.151 80.6884C302.108 77.0998 287.234 69.3024 280.716 83.9295Z" fill="white"/>
<path d="M242.386 114.134C239.409 114.538 244.844 109.897 244.844 109.897" stroke="#263238" stroke-linecap="round" stroke-linejoin="round"/>
<path d="M242.856 117.902C241.453 117.508 244.26 114.633 244.26 114.633" stroke="#263238" stroke-linecap="round" stroke-linejoin="round"/>
<path d="M242.857 121.509C241.274 121.133 244.637 118.268 244.637 118.268" stroke="#263238" stroke-linecap="round" stroke-linejoin="round"/>
<path d="M275.893 116.538V125.331C273.098 127.671 270.145 129.818 267.057 131.757C261.489 135.223 254.594 138.333 250.477 135.834C242.725 131.137 243.686 111.033 243.686 111.033L238.439 109.464C238.439 109.464 236.498 104.062 238.439 102.54C240.379 101.018 249.234 104.889 249.517 106.298C249.799 107.707 247.849 109.492 247.849 109.492C247.849 109.492 249.168 127.426 254.443 128.807C259.718 130.188 270.41 116.97 275.893 116.538Z" fill="#B97964"/>
<path d="M248.349 109.851C248.349 111.645 245.372 113.721 242.386 114.134" stroke="#263238" stroke-linecap="round" stroke-linejoin="round"/>
<path d="M248.349 111.146C248.349 113.325 244.251 118.285 242.857 117.9" stroke="#263238" stroke-linecap="round" stroke-linejoin="round"/>
<path d="M248.735 114.152C248.735 116.51 244.439 121.875 242.857 121.508" stroke="#263238" stroke-linecap="round" stroke-linejoin="round"/>
<path opacity="0.2" d="M275.893 120.25V125.332C273.098 127.673 270.146 129.82 267.057 131.758C268.564 125.887 273.321 121.894 275.893 120.25Z" fill="black"/>
<path d="M237.648 90.3564C237.648 90.3564 233.785 97.5432 237.648 97.5432C241.51 97.5432 237.648 90.3564 237.648 90.3564Z" fill="#376DC8"/>
<path opacity="0.3" d="M237.648 90.3564C237.648 90.3564 233.785 97.5432 237.648 97.5432C241.51 97.5432 237.648 90.3564 237.648 90.3564Z" fill="white"/>
<path opacity="0.4" d="M237.647 93.7207C237.647 93.7207 235.716 97.3188 237.647 97.3188C239.578 97.3188 237.647 93.7207 237.647 93.7207Z" fill="white"/>
<path d="M236.913 97.542C236.914 97.856 236.933 98.1696 236.97 98.4814C237.01 98.8134 237.07 99.1428 237.149 99.4679C237.215 99.7027 237.28 99.9282 237.365 100.154C237.45 100.379 237.488 100.482 237.554 100.652C238.168 102.071 239.186 103.281 240.482 104.131C241.777 104.98 243.294 105.433 244.845 105.433C246.395 105.433 247.912 104.98 249.208 104.131C250.504 103.281 251.521 102.071 252.136 100.652C252.202 100.482 252.268 100.323 252.324 100.154C252.381 99.9845 252.475 99.7027 252.541 99.4679C252.62 99.1428 252.679 98.8134 252.72 98.4814C252.757 98.1696 252.776 97.856 252.776 97.542H236.913Z" fill="#376DC8"/>
<path opacity="0.3" d="M236.969 98.502C237.009 98.8339 237.069 99.1633 237.148 99.4884H252.54C252.619 99.1633 252.678 98.8339 252.719 98.502H236.969Z" fill="white"/>
<path opacity="0.3" d="M237.384 100.173C237.441 100.342 237.507 100.502 237.573 100.671H252.155C252.221 100.502 252.287 100.342 252.343 100.173H237.384Z" fill="white"/>
<path d="M326.243 130.048C334.495 141.171 349.896 191.281 340.957 223.57C332.017 255.859 300.997 266.784 300.997 266.784L256.723 221.616C256.723 221.616 285.275 202.301 292.613 170.707C299.952 139.114 318.528 119.649 326.243 130.048Z" fill="#376DC8"/>
<path opacity="0.6" d="M341.004 223.589C332.055 255.877 301.045 266.803 301.045 266.803L256.771 221.644C256.771 221.644 280.942 205.288 290.522 178.063C291.369 175.658 292.083 173.209 292.661 170.726C299.999 139.133 318.566 119.63 326.281 130.02C329.766 134.717 334.523 146.366 338.178 160.684C343.161 180.309 346.119 204.913 341.004 223.589Z" fill="white"/>
<path opacity="0.2" d="M338.178 160.713C334.694 160.875 331.218 160.24 328.018 158.856C324.817 157.472 321.977 155.376 319.715 152.728L314.835 178.741C314.835 178.741 301.563 178.901 290.522 178.093C291.369 175.688 292.083 173.238 292.661 170.756C299.999 139.162 318.566 119.659 326.281 130.049C329.7 134.747 334.486 146.396 338.178 160.713Z" fill="black"/>
<path d="M277.089 176.851C277.089 176.851 266.878 231.104 264.155 253.397C260.594 282.463 246.041 324.982 246.041 324.982L251.862 326.485C251.862 326.485 272.379 290.345 276.354 257.831C292.651 224.612 293.969 183.69 293.969 183.69L277.089 176.851Z" fill="#B97964"/>
<path d="M235.207 338.135C236.149 337.705 237.16 337.447 238.193 337.374V337.374C238.193 337.374 241.773 335.279 245.315 327.115H249.309C249.982 327.125 250.637 327.339 251.184 327.731C251.731 328.122 252.146 328.671 252.371 329.304C252.436 329.479 252.474 329.663 252.484 329.849C252.442 330.813 252.338 331.773 252.173 332.724C251.589 335.899 250.812 339.037 249.846 342.118L249.168 341.949L250.392 336.012C250.807 334.001 248.678 335.946 247.698 337.985C246.719 340.023 245.202 341.958 240.793 341.019C235.659 339.798 233.615 339.056 235.207 338.135Z" fill="#2E353A"/>
<path d="M287.687 175.978C287.687 175.978 288.959 231.179 290.909 253.538C293.461 282.708 288.036 327.313 288.036 327.313L294.046 327.585C294.046 327.585 306.621 287.997 303.795 255.361C312.848 219.493 305.679 179.19 305.679 179.19L287.687 175.978Z" fill="#B97964"/>
<path d="M278.69 339.947C279.582 339.421 280.562 339.058 281.582 338.876V338.876C281.582 338.876 284.908 336.406 287.555 327.913L291.511 327.453C292.186 327.392 292.863 327.54 293.451 327.876C294.039 328.212 294.51 328.72 294.799 329.332C294.883 329.5 294.94 329.681 294.968 329.867C295.029 330.828 295.029 331.791 294.968 332.751C294.725 335.956 294.288 339.144 293.659 342.296L292.971 342.202L293.546 336.171C293.734 334.123 291.841 336.284 291.078 338.416C290.315 340.549 289.034 342.738 284.55 342.174C279.331 341.554 277.193 341.018 278.69 339.947Z" fill="#2E353A"/>
<path d="M307.968 82.0989C307.968 82.0989 310.963 82.2586 313.469 87.1531C315.975 92.0476 312.847 97.487 312.216 100.08C311.585 102.673 308.448 104.984 313.629 108.929C318.81 112.875 321.909 117.046 317.708 121.302C313.507 125.558 318.132 128.817 312.056 131.965C305.98 135.112 283.664 130.405 280.838 124.299C278.012 118.192 281.422 113.552 281.601 111.72C281.78 109.888 278.012 108.028 277.07 102.072C276.128 96.1154 280.951 94.8284 281.601 92.104C282.251 89.3796 279.218 85.9319 281.601 80.1449C283.985 74.3579 307.648 73.0896 307.968 82.0989Z" fill="#2E353A"/>
<path d="M273.443 163.146L304.529 165.823C304.832 158.138 305.94 150.506 307.836 143.051C308.58 140.083 309.512 136.766 310.709 132.933C311.349 130.885 312.056 128.687 312.847 126.357C313.44 124.563 314.081 122.656 314.788 120.645C310.566 119.301 306.253 118.262 301.882 117.536C297.269 116.719 292.604 116.229 287.922 116.07C281.874 116.07 274.922 116.7 274.922 116.7C274.922 116.7 273.933 116.935 273.311 123.332C272.756 129.298 272.237 141.304 273.443 163.146Z" fill="#376DC8"/>
<path d="M272.774 154.775L305.396 155.837C305.396 155.837 305.518 152.239 307.845 143.051C308.589 140.083 309.522 136.766 310.718 132.933C311.359 130.885 312.065 128.687 312.857 126.357C313.45 124.563 314.091 122.656 314.797 120.645C310.576 119.301 306.263 118.262 301.892 117.536C297.279 116.719 292.614 116.229 287.931 116.07C281.884 116.07 274.932 116.7 274.932 116.7C274.932 116.7 273.943 116.935 273.321 123.332C272.756 129.298 272.774 154.775 272.774 154.775Z" fill="#376DC8"/>
<path d="M290.494 122.879C298.162 121.94 300.46 118.633 300.46 118.633C295.599 114.058 299.641 106.129 299.641 106.129L290.418 107.848C290.625 109.129 290.745 110.422 290.776 111.719C290.842 117.355 288.308 117.355 288.308 117.355C286.698 120.38 290.494 122.879 290.494 122.879Z" fill="#B97964"/>
<path opacity="0.2" d="M290.418 107.848C290.625 109.129 290.745 110.422 290.776 111.719C297.003 111.719 299.641 106.129 299.641 106.129L290.418 107.848Z" fill="black"/>
<path d="M295.515 82.1274C287.499 81.6953 284.682 85.8288 283.637 94.0396C282.337 104.298 284.23 111.739 294.375 110.085C308.157 107.84 308.826 82.8602 295.515 82.1274Z" fill="#B97964"/>
<path d="M288.845 93.8809C288.137 95.0385 287.293 96.1076 286.33 97.0656C286.547 97.4087 286.854 97.6858 287.217 97.8664C287.581 98.047 287.988 98.1242 288.393 98.0896L288.845 93.8809Z" fill="#A24E3F"/>
<path d="M293.791 93.4843C293.734 94.1419 294.054 94.7056 294.488 94.7338C294.921 94.7619 295.326 94.264 295.383 93.6158C295.439 92.9676 295.119 92.3946 294.676 92.3664C294.233 92.3382 293.838 92.8361 293.791 93.4843Z" fill="#2E353A"/>
<path d="M294.846 92.4043L293.461 91.7373C293.461 91.7373 294.092 93.0056 294.846 92.4043Z" fill="#2E353A"/>
<path d="M285.624 92.7142C285.624 93.3718 285.888 93.9261 286.321 93.9637C286.754 94.0013 287.159 93.494 287.216 92.8364C287.273 92.1787 286.952 91.6245 286.51 91.5869C286.067 91.5493 285.671 92.066 285.624 92.7142Z" fill="#2E353A"/>
<path d="M286.688 91.6338L285.304 90.9668C285.304 90.9668 285.925 92.2162 286.688 91.6338Z" fill="#2E353A"/>
<path d="M294.177 87.9703C294.815 87.9275 295.454 88.0315 296.046 88.2742C296.637 88.5169 297.164 88.8918 297.587 89.3701" stroke="#2E353A" stroke-width="0.72468" stroke-linecap="round" stroke-linejoin="round"/>
<path d="M288.365 87.3122C287.825 87.1465 287.253 87.1044 286.694 87.1889C286.135 87.2735 285.602 87.4826 285.134 87.8007" stroke="#2E353A" stroke-width="0.72468" stroke-linecap="round" stroke-linejoin="round"/>
<path d="M289.392 101.291C289.721 102.21 289.983 103.152 290.173 104.11H290.692C293.037 104.006 294.092 103.17 294.544 102.297C294.76 101.865 294.867 101.388 294.855 100.906C294.858 100.63 294.823 100.355 294.752 100.089C293.333 100.799 291.778 101.197 290.192 101.254C289.702 101.291 289.392 101.291 289.392 101.291Z" fill="#2E353A"/>
<path d="M290.192 101.245L290.447 102.072C292.651 101.968 294.215 101.593 294.855 100.897C294.858 100.622 294.823 100.347 294.752 100.08C293.333 100.79 291.778 101.188 290.192 101.245V101.245Z" fill="white"/>
<path d="M290.691 104.101C293.037 103.998 294.092 103.162 294.544 102.288C293.654 102.353 292.781 102.569 291.963 102.927C291.428 103.179 290.984 103.589 290.691 104.101Z" fill="#DE5753"/>
<path d="M303.531 96.0868C303.531 96.0868 300.15 89.3134 300.997 84.2686C300.997 84.2686 285.464 76.9316 283.796 92.9679C283.796 92.9679 283.024 78.6038 296.824 79.0359C310.625 79.4681 309.466 99.5816 302.015 105.218C302.015 105.218 305.632 100.324 303.531 96.0868Z" fill="#2E353A"/>
<path d="M302.137 97.7029C302.264 96.7823 302.751 95.9495 303.493 95.3875C304.235 94.8255 305.17 94.5804 306.094 94.706C308.562 95.11 309.466 100.258 303.221 101.141C302.326 101.273 301.873 100.38 302.137 97.7029Z" fill="#B97964"/>
<path d="M307.563 119.479C307.563 119.479 298.567 126.76 290.193 126.647C281.818 126.535 278.889 117.131 278.889 117.131C278.889 117.131 291.86 113.298 307.563 119.479Z" fill="#B97964"/>
<path d="M300.997 84.2689C300.997 84.2689 295.025 82.2115 289.768 84.2689C284.512 86.3263 285.934 91.7844 283.278 92.7802" stroke="#2E353A" stroke-width="0.5" stroke-linecap="round" stroke-linejoin="round"/>
<path d="M246.041 324.983C246.041 324.983 241.058 335.373 238.194 337.374C238.194 337.374 242.037 339.666 246.041 334.556C251.212 327.98 252.484 329.811 252.484 329.811C252.376 328.681 252.168 327.561 251.862 326.467C251.08 324.363 246.041 324.983 246.041 324.983Z" fill="#B97964"/>
<path d="M288.648 324.898C288.648 324.898 287.235 328.741 285.351 332.968C284.486 335.16 283.206 337.166 281.583 338.877C281.583 338.877 284.851 339.939 286.622 337.891C288.393 335.843 291.408 328.45 294.799 329.304C294.614 328.705 294.361 328.128 294.045 327.585C293.536 326.749 288.648 324.898 288.648 324.898Z" fill="#B97964"/>
<path d="M272.775 154.774C272.775 154.774 248.141 254.825 216.66 275.408C216.66 275.408 224.13 294.507 238.194 291.539C252.258 288.57 249.281 309.83 263.194 312.329C277.108 314.828 291.728 296.443 297.587 308.111C303.446 319.778 316.361 300.914 325.301 303.658C334.24 306.401 350.64 297.664 350.64 297.664C350.64 297.664 329.21 181.69 305.424 155.808L272.775 154.774Z" fill="#376DC8"/>
<path opacity="0.2" d="M350.64 297.663C350.64 297.663 334.24 306.4 325.301 303.657C316.361 300.914 303.437 319.778 297.587 308.11C291.737 296.442 277.098 314.827 263.194 312.328C249.291 309.829 252.258 288.56 238.194 291.538C224.13 294.516 216.66 275.408 216.66 275.408C218.003 274.522 219.284 273.546 220.494 272.486C223.056 270.226 225.409 267.739 227.521 265.055C229.358 262.772 231.157 260.264 232.919 257.54C233.39 256.816 233.861 256.084 234.322 255.341C256.883 219.267 272.775 154.736 272.775 154.736L305.396 155.798C322.164 174.023 337.716 236.806 345.478 272.439C345.638 273.153 345.789 273.848 345.94 274.544C346.769 278.414 347.503 281.918 348.135 284.972C348.474 286.644 348.785 288.175 349.077 289.547C350.085 294.676 350.64 297.663 350.64 297.663Z" fill="white"/>
<g opacity="0.2">
<path opacity="0.2" d="M349.057 289.548C343.255 292.949 335.869 296.49 332.007 295.25C325.055 293.024 325.3 291.042 319.092 296.246C312.885 301.451 306.667 307.642 302.692 300.211C298.717 292.78 294.987 289.059 281.582 298.228C268.177 307.397 260.208 308.14 255.611 293.484C251.014 278.829 245.305 282.126 232.136 282.615C225.203 282.878 221.982 277.57 220.493 272.488C223.056 270.228 225.408 267.74 227.52 265.057C228.557 267.706 229.979 270.205 231.882 271.473C237.101 274.94 245.55 269.237 252.483 270.731C259.417 272.225 262.695 289.351 268.658 292.037C274.62 294.724 291.011 277.664 298.02 280.633C305.028 283.601 307.656 296.246 314.797 289.313C321.937 282.38 331.508 280.633 338.262 287.077C341.333 290.008 345.035 288.017 348.134 284.973C348.473 286.645 348.784 288.176 349.057 289.548Z" fill="white"/>
</g>
<g opacity="0.2">
<path opacity="0.2" d="M345.941 274.543C344.151 275.981 342.116 277.117 340.166 277.117H339.912C337.387 276.977 335.202 275.351 332.988 273.773C330.774 272.195 328.58 270.541 326.29 270.673C324.35 270.767 322.183 273.2 320.102 275.549C317.351 278.639 314.506 281.843 311.171 281.035C308.44 280.368 305.435 277.747 302.524 275.22C299.613 272.693 296.74 270.175 294.799 270.175C293.094 270.175 289.147 273.491 285.662 276.422C280.839 280.471 276.242 284.314 273.039 284.314H272.691C269.309 284.004 265.805 278.047 262.093 271.734C259.766 267.779 256.865 262.847 255.386 262.49C253.615 262.068 250.167 263.232 247.115 264.266C243.47 265.496 240.022 266.661 237.893 265.938C235.435 265.093 233.833 260.968 232.919 257.596C233.39 256.872 233.861 256.14 234.323 255.397C235.171 259.155 236.697 263.542 238.496 264.153C240.022 264.679 243.47 263.514 246.513 262.481C250.12 261.26 253.53 260.104 255.829 260.658C257.977 261.184 260.228 264.848 263.723 270.786C266.718 275.877 270.449 282.219 272.86 282.444C275.272 282.67 280.396 278.423 284.447 275.004C288.724 271.415 292.407 268.315 294.809 268.315C297.456 268.315 300.527 270.992 303.767 273.82C306.508 276.206 309.334 278.677 311.624 279.222C313.913 279.767 316.334 276.995 318.698 274.318C321.062 271.64 323.474 268.954 326.234 268.813C329.211 268.672 331.716 270.504 334.137 272.27C336.172 273.754 338.084 275.154 340.044 275.257H340.213C341.843 275.257 343.774 273.998 345.517 272.439C345.639 273.153 345.79 273.848 345.941 274.543Z" fill="white"/>
</g>
<path d="M272.69 150.311L305.943 151.701L306.706 157.356L272.219 156.962L272.69 150.311Z" fill="#376DC8"/>
<path opacity="0.4" d="M272.69 150.311L305.943 151.701L306.706 157.356L272.219 156.962L272.69 150.311Z" fill="white"/>
<path d="M290.889 86.327C290.889 86.327 291.257 75.7206 294.582 75.5703" stroke="white" stroke-width="0.5" stroke-miterlimit="10"/>
<path d="M291.125 85.4238C291.125 85.4238 288.083 87.9509 290.061 88.5616C292.567 89.3507 291.125 85.4238 291.125 85.4238Z" fill="white"/>
<path d="M290.795 86.3369C290.795 86.3369 289.269 87.6052 290.268 87.9058C291.52 88.3098 290.795 86.3369 290.795 86.3369Z" fill="#376DC8"/>
<path d="M289.391 76.0966C302.815 75.2605 306.046 91.9357 309.277 104.28C312.508 116.624 321.203 124.797 332.384 125.173C332.384 125.173 337.471 123.811 338.215 119.471C338.215 119.471 325.677 118.221 321.57 108.94C317.463 99.6579 325.677 82.1936 309.154 76.0591C292.632 69.9245 284.483 77.6091 284.483 77.6091L289.391 76.0966Z" fill="#376DC8"/>
<path opacity="0.7" d="M338.177 119.47C337.976 120.616 337.446 121.68 336.651 122.533C336.399 122.822 336.122 123.09 335.822 123.331C335.544 123.559 335.251 123.77 334.946 123.961C334.142 124.484 333.267 124.889 332.346 125.163H332.149C321.061 124.703 312.451 116.548 309.239 104.279C306.027 92.0101 302.777 75.2504 289.354 76.0959L284.483 77.6084C284.926 77.2226 285.402 76.8768 285.906 76.575C287.891 75.3742 290.077 74.5404 292.359 74.1137C293.112 73.9727 293.922 73.8506 294.789 73.7755C295.7 73.6953 296.615 73.6639 297.53 73.6815C301.515 73.8195 305.446 74.6361 309.154 76.0959C325.677 82.2305 317.472 99.6947 321.57 108.976C325.668 118.258 338.177 119.47 338.177 119.47Z" fill="white"/>
<g opacity="0.5">
<path opacity="0.5" d="M334.985 124.008C334.18 124.531 333.305 124.936 332.385 125.21H332.187L331.49 124.975C326.305 123.058 321.563 120.115 317.548 116.323C313.94 112.988 312.301 108.338 310.719 103.838C310.38 102.898 310.05 101.959 309.692 101.02C308.909 98.8195 308.252 96.5769 307.723 94.3026C306.875 90.9206 305.99 87.4258 304.304 84.5042C301.973 80.7967 298.449 77.988 294.309 76.5377C291.541 75.6935 288.578 75.7296 285.831 76.641C287.816 75.4402 290.002 74.6064 292.284 74.1797C293.146 74.2931 293.998 74.4817 294.827 74.7433C299.411 76.3505 303.313 79.4603 305.896 83.5647C307.714 86.7119 308.627 90.3381 309.513 93.8423C310.023 96.0446 310.652 98.2179 311.397 100.353C311.755 101.292 312.094 102.231 312.443 103.227C313.95 107.511 315.513 111.936 318.773 114.952C322.6 118.571 327.121 121.383 332.064 123.219C333.018 123.549 333.994 123.813 334.985 124.008V124.008Z" fill="white"/>
</g>
<g opacity="0.5">
<path opacity="0.5" d="M336.689 122.532C336.437 122.822 336.16 123.089 335.86 123.33C334.902 123.123 333.957 122.853 333.034 122.522C327.908 120.618 323.218 117.704 319.243 113.955C315.73 110.704 314.11 106.11 312.546 101.667C312.207 100.727 311.868 99.7878 311.519 98.8484C310.741 96.6666 310.087 94.4429 309.56 92.1877C308.702 88.7775 307.817 85.2546 306.093 82.2766C303.699 78.4653 300.079 75.5771 295.825 74.0846C295.467 73.9719 295.109 73.8779 294.751 73.8028C295.663 73.7226 296.578 73.6912 297.493 73.7089C301.376 75.4056 304.658 78.2269 306.913 81.8069C308.702 84.8976 309.607 88.4863 310.483 91.9529C310.985 94.1788 311.614 96.3744 312.367 98.529C312.725 99.4684 313.064 100.408 313.403 101.347C314.929 105.678 316.512 110.169 319.856 113.259C323.733 116.921 328.312 119.765 333.317 121.621C334.413 122.02 335.541 122.325 336.689 122.532Z" fill="white"/>
</g>
<path d="M288.845 115.956C288.845 115.956 286.697 120.653 291.266 120.588C295.835 120.522 299.64 115.956 299.64 115.956" stroke="white" stroke-linecap="round" stroke-linejoin="round"/>
<path d="M287.932 116.032C287.932 116.032 284.164 121.274 289.392 122.881C294.62 124.487 300.498 116.652 300.498 116.652" stroke="white" stroke-linecap="round" stroke-linejoin="round"/>
<path d="M286.622 115.956C286.349 116.031 281.394 123.829 287.913 125.501C294.431 127.173 301.233 117.14 301.233 117.14" stroke="white" stroke-linecap="round" stroke-linejoin="round"/>
<path d="M352.091 130.49C354.917 131.627 350.763 125.793 350.763 125.793" stroke="#263238" stroke-linecap="round" stroke-linejoin="round"/>
<path d="M350.707 134.031C352.157 134.031 350.151 130.518 350.151 130.518" stroke="#263238" stroke-linecap="round" stroke-linejoin="round"/>
<path d="M349.802 137.527C351.432 137.527 348.86 133.947 348.86 133.947" stroke="#263238" stroke-linecap="round" stroke-linejoin="round"/>
<path d="M319.036 124.543C324.236 126.319 331.339 141.744 336.783 141.707C342.228 141.669 347.955 124.628 347.955 124.628C347.955 124.628 346.533 122.392 347.145 121.114C347.758 119.837 357.3 118.296 358.798 120.241C360.296 122.185 357.083 126.958 357.083 126.958L351.601 127.174C351.601 127.174 347.532 146.902 338.856 149.523C330.18 152.144 316.851 133.055 316.851 133.055L319.036 124.543Z" fill="#B97964"/>
<path d="M347.381 124.87C346.929 126.608 349.265 129.361 352.091 130.507" stroke="#263238" stroke-linecap="round" stroke-linejoin="round"/>
<path d="M347.051 126.131C346.514 128.235 349.255 134.06 350.706 134.032" stroke="#263238" stroke-linecap="round" stroke-linejoin="round"/>
<path d="M345.94 128.95C345.355 131.224 348.182 137.49 349.802 137.527" stroke="#263238" stroke-linecap="round" stroke-linejoin="round"/>
<path d="M359.759 106.947C359.759 106.947 363.63 114.143 359.759 114.143C355.887 114.143 359.759 106.947 359.759 106.947Z" fill="#376DC8"/>
<path opacity="0.3" d="M359.759 106.947C359.759 106.947 363.63 114.143 359.759 114.143C355.887 114.143 359.759 106.947 359.759 106.947Z" fill="white"/>
<path opacity="0.4" d="M359.759 110.319C359.759 110.319 361.699 113.917 359.759 113.917C357.818 113.917 359.759 110.319 359.759 110.319Z" fill="white"/>
<path d="M360.503 114.145C360.503 114.459 360.484 114.772 360.447 115.084C360.407 115.419 360.347 115.752 360.268 116.08C360.202 116.315 360.136 116.54 360.051 116.766C359.966 116.991 359.929 117.094 359.863 117.263C359.248 118.683 358.231 119.893 356.935 120.743C355.639 121.592 354.122 122.045 352.572 122.045C351.021 122.045 349.504 121.592 348.209 120.743C346.913 119.893 345.895 118.683 345.281 117.263C345.215 117.094 345.149 116.935 345.092 116.766C345.036 116.596 344.942 116.315 344.876 116.08C344.796 115.752 344.736 115.419 344.697 115.084C344.659 114.772 344.64 114.459 344.64 114.145H360.503Z" fill="#376DC8"/>
<path opacity="0.3" d="M360.447 115.092C360.407 115.427 360.348 115.76 360.268 116.088H344.876C344.796 115.76 344.736 115.427 344.697 115.092H360.447Z" fill="white"/>
<path opacity="0.3" d="M360.051 116.774C359.995 116.944 359.929 117.103 359.863 117.272H345.281C345.215 117.103 345.149 116.944 345.092 116.774H360.051Z" fill="white"/>
<path d="M305.02 116.651C305.02 116.651 267.17 213.987 215.53 217.172L220.937 253.81C220.937 253.81 263.977 273.633 285.341 222.348C306.706 171.064 320.261 133.251 326.281 129.982C326.243 130.048 321.505 118.681 305.02 116.651Z" fill="#376DC8"/>
<path opacity="0.7" d="M326.243 130.048C320.223 133.318 306.668 171.121 285.303 222.415C263.939 273.708 220.899 253.877 220.899 253.877L220.183 248.991L219.881 246.953L219.693 245.656L218.751 239.325L218.581 238.141L217.319 229.573L217.018 227.553L216.726 225.58L215.492 217.21C267.17 213.988 304.982 116.689 304.982 116.689C306.005 116.821 306.985 116.981 307.921 117.169C308.552 117.3 309.164 117.45 309.758 117.61C310.351 117.77 310.803 117.901 311.303 118.061C313.859 118.854 316.284 120.019 318.499 121.518C318.782 121.697 319.046 121.885 319.31 122.082C320.53 122.971 321.662 123.975 322.691 125.079C323.1 125.497 323.486 125.936 323.85 126.394C324.293 126.939 324.66 127.455 324.962 127.906C325.449 128.583 325.877 129.299 326.243 130.048V130.048Z" fill="white"/>
<g opacity="0.7">
<path opacity="0.5" d="M324.99 127.878C315.825 134.276 303.456 154.502 295.929 183.484C285.567 223.373 265.305 243.871 251.1 249.301C246.958 250.76 242.586 251.46 238.194 251.368C232.118 251.255 226.074 250.445 220.183 248.954L219.882 246.915C227.927 248.897 241.03 251.105 250.431 247.516C264.222 242.237 283.938 222.151 294.111 182.977C302.062 152.388 314.628 132.848 323.888 126.328C324.331 126.911 324.698 127.427 324.99 127.878Z" fill="white"/>
<path opacity="0.5" d="M309.795 117.581C301.317 145.53 280.687 178.701 253.464 207.768C240.973 221.08 229.716 227.825 220.004 227.825H219.646C218.766 227.807 217.888 227.731 217.018 227.599L216.726 225.627C217.725 225.827 218.74 225.934 219.759 225.946C226.098 226.012 236.856 222.714 252.088 206.49C279.095 177.696 299.574 144.853 307.958 117.187C308.589 117.271 309.202 117.431 309.795 117.581Z" fill="white"/>
<path opacity="0.5" d="M322.729 125.05C315.881 129.597 308.42 140.504 302.947 151.796C295.487 167.156 292.255 200.102 270.015 228.286C251.957 251.152 228.039 247.751 219.693 245.666L218.751 239.334L218.582 238.15L217.319 229.582C259.276 222.32 282.779 178.927 296.937 152.548C305.905 135.854 309.73 124.364 311.34 118.042C313.897 118.835 316.322 120 318.537 121.499C318.82 121.678 319.084 121.866 319.347 122.063C320.567 122.949 321.699 123.95 322.729 125.05V125.05Z" fill="white"/>
</g>
<path d="M152.246 324.7L159.452 328.834L168.09 313.211L160.884 309.077L152.246 324.7Z" fill="#EEC1BB"/>
<path d="M160.329 327.912L152.322 322.83C152.191 322.741 152.033 322.7 151.875 322.714C151.717 322.727 151.569 322.795 151.455 322.905L146.622 327.912C146.52 328.032 146.442 328.171 146.393 328.322C146.344 328.472 146.326 328.63 146.339 328.787C146.352 328.945 146.397 329.098 146.469 329.238C146.542 329.378 146.642 329.502 146.764 329.603C146.824 329.658 146.89 329.705 146.962 329.744C149.788 331.445 151.266 332.224 154.752 334.441C156.9 335.794 165.962 340.661 169.315 340.895C172.669 341.13 173.083 337.974 171.68 337.467C164.794 334.902 162.109 331.633 161.233 329.058C161.068 328.586 160.75 328.183 160.329 327.912V327.912Z" fill="#263238"/>
<path opacity="0.2" d="M160.884 309.077L168.09 313.211L163.635 321.271L156.428 317.128L160.884 309.077Z" fill="black"/>
<path d="M180.996 141.347C180.996 141.347 204.546 219.321 203.284 242.468C201.871 267.833 167.62 321.316 167.62 321.316L154.714 313.19C154.714 313.19 178.905 260.534 179.809 241.041C178.472 212.857 149.072 144.325 149.072 144.325L180.996 141.347Z" fill="#263238"/>
<path opacity="0.2" d="M162.288 168.743C169.419 173.092 172.235 191.646 170.766 201.069C166.922 189.138 162.514 177.376 158.991 168.367C159.526 168.138 160.111 168.052 160.689 168.118C161.267 168.184 161.818 168.399 162.288 168.743Z" fill="black"/>
<path d="M169.052 322.557L153.838 312.946L156.335 308.662L172.292 318.367L169.052 322.557Z" fill="#376DC8"/>
<path d="M160.301 329.133C160.269 329.108 160.247 329.073 160.237 329.034C160.226 328.995 160.229 328.954 160.244 328.917C160.256 328.883 160.28 328.855 160.311 328.836C160.342 328.817 160.378 328.809 160.414 328.814C160.753 328.814 163.795 328.955 164.361 329.828C164.416 329.922 164.445 330.029 164.445 330.138C164.445 330.247 164.416 330.354 164.361 330.448C164.292 330.614 164.179 330.759 164.035 330.866C163.891 330.974 163.72 331.04 163.541 331.059C162.977 331.06 162.429 330.879 161.977 330.542C161.372 330.13 160.811 329.658 160.301 329.133V329.133ZM160.903 329.218C161.555 329.995 162.464 330.515 163.466 330.683C163.59 330.672 163.709 330.627 163.809 330.552C163.909 330.478 163.986 330.376 164.031 330.26C164.054 330.224 164.067 330.182 164.067 330.138C164.067 330.095 164.054 330.053 164.031 330.016C163.977 329.942 163.91 329.878 163.833 329.828C162.901 329.453 161.909 329.246 160.903 329.218V329.218Z" fill="#376DC8"/>
<path d="M160.243 329.087C160.224 329.059 160.214 329.027 160.214 328.993C160.214 328.96 160.224 328.927 160.243 328.899C160.299 328.787 161.581 326.973 162.777 326.87C162.924 326.852 163.073 326.865 163.214 326.909C163.355 326.953 163.486 327.026 163.596 327.124C163.724 327.195 163.823 327.307 163.878 327.442C163.933 327.577 163.94 327.726 163.898 327.866C163.606 328.693 161.345 329.266 160.403 329.172H160.309C160.28 329.15 160.257 329.121 160.243 329.087V329.087ZM163.304 327.387C163.166 327.294 162.999 327.254 162.833 327.274C162.08 327.34 161.204 328.317 160.799 328.824C161.816 328.768 163.361 328.242 163.531 327.753C163.531 327.697 163.578 327.593 163.37 327.434L163.304 327.387V327.387Z" fill="#376DC8"/>
<path d="M136.552 334.104H144.559L145.218 315.597H137.202L136.552 334.104Z" fill="#EEC1BB"/>
<path d="M145.671 333.172H135.94C135.78 333.175 135.625 333.23 135.5 333.331C135.376 333.431 135.288 333.571 135.253 333.727L133.67 340.838C133.639 340.992 133.638 341.15 133.668 341.304C133.699 341.458 133.76 341.604 133.847 341.735C133.935 341.865 134.048 341.976 134.179 342.063C134.31 342.149 134.457 342.209 134.612 342.238H134.876C138.022 342.191 140.311 341.994 144.296 341.994C146.736 341.994 154.083 342.247 157.437 342.247C160.79 342.247 161.205 338.94 159.867 338.63C153.687 337.296 149.043 335.436 147.065 333.661C146.682 333.323 146.182 333.147 145.671 333.172V333.172Z" fill="#263238"/>
<path opacity="0.2" d="M137.202 315.605H145.218L144.87 325.15H136.854L137.202 315.605Z" fill="black"/>
<path d="M170.069 142.936C170.069 142.936 163.55 219.303 160.168 242.517C156.466 267.882 148.554 323.309 148.554 323.309H133.896C133.896 323.309 136.892 270.268 138.276 245.335C139.868 216.889 140.631 145.397 140.631 145.397L170.069 142.936Z" fill="#263238"/>
<path d="M150.315 323.61H133.029V318.462L150.965 318.124L150.315 323.61Z" fill="#376DC8"/>
<path d="M146.217 334.282C146.18 334.272 146.147 334.252 146.122 334.224C146.096 334.195 146.08 334.16 146.076 334.122C146.068 334.085 146.073 334.046 146.09 334.012C146.107 333.978 146.135 333.95 146.17 333.934C146.453 333.756 149.043 332.168 149.938 332.628C150.037 332.676 150.12 332.75 150.177 332.844C150.233 332.937 150.262 333.045 150.258 333.154C150.286 333.343 150.265 333.536 150.195 333.714C150.126 333.892 150.011 334.049 149.863 334.169C149.413 334.477 148.871 334.622 148.327 334.582C147.615 334.558 146.908 334.457 146.217 334.282V334.282ZM146.764 334.019C147.69 334.328 148.699 334.278 149.59 333.878C149.687 333.794 149.761 333.688 149.806 333.568C149.85 333.448 149.864 333.318 149.844 333.192C149.844 333.042 149.778 332.976 149.721 332.976C149.649 332.93 149.562 332.91 149.476 332.92C148.511 333.114 147.591 333.486 146.764 334.019V334.019Z" fill="#376DC8"/>
<path d="M146.17 334.319C146.14 334.302 146.116 334.277 146.099 334.247C146.083 334.217 146.075 334.184 146.076 334.15C146.076 334.037 146.274 331.745 147.206 330.993C147.314 330.897 147.441 330.825 147.579 330.782C147.718 330.74 147.864 330.729 148.007 330.749C148.151 330.748 148.291 330.798 148.403 330.888C148.514 330.979 148.591 331.106 148.619 331.247C148.789 332.092 147.187 333.849 146.358 334.291H146.264C146.251 334.302 146.236 334.31 146.22 334.315C146.204 334.319 146.187 334.321 146.17 334.319V334.319ZM147.451 331.219C146.89 331.937 146.561 332.809 146.509 333.718C147.338 333.098 148.393 331.764 148.252 331.247C148.252 331.19 148.252 331.05 147.979 331.05H147.894C147.812 331.046 147.731 331.06 147.655 331.089C147.579 331.118 147.51 331.162 147.451 331.219V331.219Z" fill="#376DC8"/>
<path d="M200.994 86.9069L202.878 77.5782C202.443 76.5624 202.127 75.5001 201.936 74.4123C201.88 73.3413 213.805 70.9081 214.427 71.3779C215.049 71.8476 213.551 75.6054 212.807 76.7045C212.063 77.8037 206.844 77.8694 206.844 77.8694L205.601 86.5593L200.994 86.9069Z" fill="#B97964"/>
<path d="M214.484 58.7812C214.484 58.7812 218.346 65.9774 214.484 65.9774C210.621 65.9774 214.484 58.7812 214.484 58.7812Z" fill="#376DC8"/>
<path opacity="0.3" d="M214.484 58.7812C214.484 58.7812 218.346 65.9774 214.484 65.9774C210.621 65.9774 214.484 58.7812 214.484 58.7812Z" fill="white"/>
<path opacity="0.4" d="M214.484 62.1533C214.484 62.1533 216.415 65.742 214.484 65.742C212.553 65.742 214.484 62.1533 214.484 62.1533Z" fill="white"/>
<path d="M215.219 65.9756C215.219 66.2896 215.2 66.6033 215.162 66.915C215.123 67.2502 215.063 67.5828 214.983 67.9108C214.917 68.1457 214.851 68.3712 214.767 68.5966C214.682 68.8221 214.644 68.9254 214.578 69.0945C213.964 70.5145 212.946 71.7239 211.65 72.5736C210.355 73.4233 208.838 73.8761 207.287 73.8761C205.736 73.8761 204.22 73.4233 202.924 72.5736C201.628 71.7239 200.61 70.5145 199.996 69.0945C199.93 68.9254 199.864 68.7657 199.808 68.5966C199.751 68.4275 199.657 68.1457 199.591 67.9108C199.511 67.5828 199.452 67.2502 199.412 66.915C199.374 66.6033 199.356 66.2896 199.355 65.9756H215.219Z" fill="#376DC8"/>
<path opacity="0.3" d="M215.163 66.9258C215.123 67.261 215.063 67.5935 214.984 67.9216H199.592C199.512 67.5935 199.452 67.261 199.413 66.9258H215.163Z" fill="white"/>
<path opacity="0.3" d="M214.776 68.5781C214.719 68.7472 214.654 68.9069 214.588 69.076H199.996C199.93 68.9069 199.864 68.7472 199.808 68.5781H214.776Z" fill="white"/>
<path d="M174.166 90.9463C181.372 91.6696 191.254 95.7562 193.891 96.9305C196.529 98.1048 201.352 80.96 201.352 80.96L207.701 82.2188V85.9766C207.701 85.9766 211.111 92.8627 208.699 103.093C204.724 119.928 176.229 110.543 176.229 110.543C165.97 101.581 174.166 90.9463 174.166 90.9463Z" fill="#376DC8"/>
<path opacity="0.7" d="M174.166 90.9463C181.372 91.6696 191.254 95.7562 193.891 96.9305C196.529 98.1048 201.352 80.96 201.352 80.96L207.701 82.2188V85.9766C207.701 85.9766 211.111 92.8627 208.699 103.093C204.724 119.928 176.229 110.543 176.229 110.543C165.97 101.581 174.166 90.9463 174.166 90.9463Z" fill="white"/>
<path d="M136.157 92.7221C136.157 92.7221 162.241 88.9643 174.167 90.9465C174.167 90.9465 182.861 127.35 185.348 131.812C187.835 136.275 180.808 142.437 180.808 142.437L141.442 146.195C141.442 146.195 137.401 145.105 136.157 143.64C134.914 142.174 140.132 111.351 136.157 92.7221Z" fill="#376DC8"/>
<path opacity="0.7" d="M136.157 92.7221C136.157 92.7221 162.241 88.9643 174.167 90.9465C174.167 90.9465 182.861 127.35 185.348 131.812C187.835 136.275 180.808 142.437 180.808 142.437L141.442 146.195C141.442 146.195 137.401 145.105 136.157 143.64C134.914 142.174 140.132 111.351 136.157 92.7221Z" fill="white"/>
<path d="M111.806 88.4491L109.922 79.1204C110.36 78.1058 110.676 77.0431 110.864 75.9545C110.93 74.8741 99.0041 72.4503 98.3824 72.92C97.7607 73.3898 99.2585 77.1475 100.003 78.2373C100.747 79.3271 105.966 79.4116 105.966 79.4116L107.2 88.1015L111.806 88.4491Z" fill="#B97964"/>
<path d="M98.3259 60.3203C98.3259 60.3203 94.4543 67.5165 98.3259 67.5165C102.198 67.5165 98.3259 60.3203 98.3259 60.3203Z" fill="#376DC8"/>
<path opacity="0.3" d="M98.3259 60.3203C98.3259 60.3203 94.4543 67.5165 98.3259 67.5165C102.198 67.5165 98.3259 60.3203 98.3259 60.3203Z" fill="white"/>
<path opacity="0.4" d="M98.3263 63.6846C98.3263 63.6846 96.4423 67.2826 98.3263 67.2826C100.21 67.2826 98.3263 63.6846 98.3263 63.6846Z" fill="white"/>
<path d="M97.582 67.5166C97.5822 67.8306 97.6011 68.1443 97.6386 68.456C97.6782 68.7912 97.738 69.1238 97.8175 69.4518C97.8835 69.6867 97.9494 69.9122 98.0342 70.1377C98.119 70.3631 98.1567 70.4665 98.2226 70.6356C98.837 72.0555 99.8549 73.2649 101.151 74.1146C102.446 74.9643 103.963 75.4171 105.514 75.4171C107.064 75.4171 108.581 74.9643 109.877 74.1146C111.172 73.2649 112.19 72.0555 112.805 70.6356C112.871 70.4665 112.937 70.3068 112.993 70.1377C113.05 69.9686 113.144 69.6867 113.21 69.4518C113.289 69.1238 113.349 68.7912 113.389 68.456C113.426 68.1443 113.445 67.8306 113.445 67.5166H97.582Z" fill="#376DC8"/>
<path opacity="0.3" d="M97.6379 68.4648C97.6776 68.8 97.7374 69.1326 97.8169 69.4607H113.209C113.289 69.1326 113.349 68.8 113.388 68.4648H97.6379Z" fill="white"/>
<path opacity="0.3" d="M98.0342 70.1475C98.0907 70.3166 98.1566 70.4763 98.2226 70.6454H112.805C112.871 70.4763 112.937 70.3166 112.993 70.1475H98.0342Z" fill="white"/>
<path d="M177.567 147.54L181.627 147.183L180.807 142.438L176.804 142.824L177.567 147.54Z" fill="black"/>
<path d="M153.085 149.671L176.23 147.652L175.655 142.936L152.689 145.153L153.085 149.671Z" fill="black"/>
<path d="M150.702 145.351L141.442 146.243L141.385 150.696L151.286 149.832L150.702 145.351Z" fill="black"/>
<path d="M161.704 145.435L162.118 147.896C162.16 148.162 162.302 148.403 162.516 148.569C162.729 148.735 162.998 148.813 163.267 148.788L168.298 148.347C168.578 148.314 168.834 148.172 169.01 147.952C169.186 147.733 169.269 147.452 169.24 147.173L168.985 144.645C168.952 144.368 168.811 144.114 168.593 143.938C168.375 143.763 168.096 143.679 167.817 143.706L162.627 144.213C162.485 144.23 162.348 144.276 162.224 144.347C162.099 144.419 161.991 144.514 161.905 144.628C161.819 144.742 161.756 144.872 161.722 145.011C161.687 145.149 161.681 145.294 161.704 145.435V145.435Z" fill="white"/>
<path d="M138.643 92.4873C131.437 93.2106 121.555 97.2878 118.918 98.4715C116.28 99.6552 111.457 82.501 111.457 82.501L105.099 83.7504V87.5082C105.099 87.5082 101.698 94.4037 104.157 104.634C108.132 121.469 137.673 114.78 137.673 114.78C147.894 105.818 138.643 92.4873 138.643 92.4873Z" fill="#376DC8"/>
<path opacity="0.7" d="M138.643 92.4873C131.437 93.2106 121.555 97.2878 118.918 98.4715C116.28 99.6552 111.457 82.501 111.457 82.501L105.099 83.7504V87.5082C105.099 87.5082 101.698 94.4037 104.157 104.634C108.132 121.469 137.673 114.78 137.673 114.78C147.894 105.818 138.643 92.4873 138.643 92.4873Z" fill="white"/>
<path d="M231.733 156.585L225.713 172.377C224.049 172.222 222.395 171.974 220.758 171.635C219.421 171.362 217.866 171.015 216.171 170.536C215.229 170.263 214.183 169.953 213.128 169.596C212.384 169.343 211.621 169.07 210.848 168.76C205.203 166.677 200.036 163.482 195.654 159.366C183.549 147.66 183.625 126.419 181.628 113.164C179.631 99.9083 174.553 89.3584 157.437 89.7999C157.437 89.7999 165.566 88.0713 168.27 88.4377C177.294 89.6496 190.256 97.5503 191.82 116.104C193.063 130.685 201.768 151.615 217.433 156.547C218.13 156.767 218.837 156.952 219.552 157.102C220.174 157.243 220.803 157.35 221.436 157.421C222.751 157.59 224.078 157.65 225.402 157.6C227.545 157.514 229.671 157.174 231.733 156.585V156.585Z" fill="#376DC8"/>
<path d="M147.602 91.8673C150.098 94.122 157.87 95.8882 157.87 95.8882L162.457 107.406L160.573 95.3433C160.573 95.3433 165.698 91.7922 164.944 90.6461C161.591 90.1012 159.961 88.5417 159.292 86.5407C158.929 85.3038 158.814 84.0078 158.953 82.7265C159.01 82.0112 159.104 81.2994 159.236 80.594L147.932 72.2705C149.439 77.785 151.248 87.8841 147.602 91.8673Z" fill="#B97964"/>
<path opacity="0.2" d="M150.569 77.5791C151.021 84.3243 156.579 86.1844 159.292 86.5602C158.929 85.3233 158.814 84.0273 158.953 82.746L150.569 77.5791Z" fill="black"/>
<path d="M164.728 51.4146C171.68 50.6067 170.192 64.952 165.265 69.7714C160.339 74.5907 157.428 55.2663 157.428 55.2663C157.428 55.2663 162.675 51.6683 164.728 51.4146Z" fill="#263238"/>
<path d="M150.466 80.4258C151.882 81.9606 153.763 82.9902 155.822 83.3567C157.881 83.7232 160.003 83.4065 161.864 82.455C164.292 81.2669 166.175 79.201 167.13 76.6774C167.269 76.3273 167.388 75.9697 167.488 75.6065C169.249 68.8518 168.43 57.6255 161.092 54.4783C159.471 53.7738 157.697 53.4943 155.937 53.6667C154.178 53.839 152.492 54.4574 151.04 55.463C149.588 56.4686 148.418 57.8279 147.642 59.4118C146.865 60.9956 146.508 62.7512 146.604 64.5116C146.896 72.0554 146.707 76.4989 150.466 80.4258Z" fill="#B97964"/>
<path d="M158.048 66.8503C157.992 67.4609 158.34 67.9682 158.755 67.9776C159.169 67.987 159.489 67.4891 159.508 66.8784C159.527 66.2678 159.197 65.7605 158.792 65.7511C158.387 65.7417 158.057 66.2302 158.048 66.8503Z" fill="#263238"/>
<path d="M165.01 66.9899C164.954 67.6005 165.312 68.1078 165.717 68.1172C166.122 68.1266 166.452 67.6287 166.47 67.0181C166.489 66.4074 166.16 65.9001 165.764 65.8907C165.368 65.8814 165.02 66.4074 165.01 66.9899Z" fill="#263238"/>
<path d="M162.787 67.2461C163.479 69.1398 164.43 70.9291 165.613 72.5634C165.184 72.8557 164.696 73.051 164.183 73.1354C163.671 73.2197 163.146 73.1912 162.646 73.0519L162.787 67.2461Z" fill="#A24E3F"/>
<path d="M155.93 64.5588C155.995 64.5687 156.063 64.5618 156.125 64.5389C156.188 64.5159 156.244 64.4775 156.287 64.4272C156.559 64.065 156.912 63.771 157.317 63.5688C157.723 63.3665 158.17 63.2616 158.624 63.2623C158.67 63.2675 158.717 63.2633 158.762 63.2499C158.807 63.2365 158.849 63.2142 158.885 63.1844C158.921 63.1546 158.95 63.1179 158.972 63.0764C158.993 63.0349 159.006 62.9895 159.01 62.9429C159.015 62.896 159.011 62.8485 158.998 62.8032C158.984 62.7579 158.962 62.7156 158.932 62.679C158.903 62.6423 158.866 62.6118 158.824 62.5894C158.782 62.567 158.737 62.553 158.69 62.5483V62.5483C158.116 62.532 157.548 62.6531 157.031 62.9016C156.515 63.1501 156.066 63.5187 155.722 63.9763C155.689 64.0095 155.662 64.049 155.644 64.0925C155.626 64.1361 155.616 64.1828 155.616 64.2299C155.616 64.2771 155.626 64.3238 155.644 64.3674C155.662 64.4109 155.689 64.4504 155.722 64.4836V64.4836C155.785 64.5237 155.856 64.5494 155.93 64.5588V64.5588Z" fill="#263238"/>
<path d="M168.043 64.6611C168.114 64.6798 168.189 64.6798 168.26 64.6611C168.303 64.6419 168.343 64.6141 168.375 64.5794C168.408 64.5447 168.434 64.5038 168.45 64.4592C168.467 64.4145 168.475 64.367 168.473 64.3194C168.471 64.2718 168.459 64.2251 168.439 64.182V64.182C168.211 63.6545 167.86 63.1895 167.413 62.8264C166.967 62.4633 166.44 62.2129 165.876 62.0964C165.783 62.083 165.688 62.107 165.612 62.1634C165.536 62.2197 165.485 62.3037 165.471 62.397V62.397C165.46 62.49 165.485 62.5837 165.541 62.6589C165.597 62.734 165.68 62.7848 165.773 62.801V62.801C166.216 62.9053 166.628 63.1118 166.976 63.4039C167.325 63.6959 167.6 64.0654 167.779 64.4826C167.807 64.5298 167.846 64.5702 167.891 64.601C167.937 64.6319 167.989 64.6524 168.043 64.6611V64.6611Z" fill="#263238"/>
<path d="M152.35 55.2109L152.849 58.5272C152.292 58.8106 151.863 59.2927 151.646 59.8777C151.43 60.4627 151.442 61.1075 151.681 61.6837C152.84 64.4457 151.361 68.8329 149.26 70.6178C149.26 70.6178 149.157 69.4059 148.149 69.7254C147.141 70.0448 147.583 76.3015 149.665 79.2889C149.665 79.2889 146.566 76.6585 144.673 70.0824C142.93 63.9948 142.591 58.8936 143.787 56.498L152.35 55.2109Z" fill="#263238"/>
<path d="M143.184 70.6268C143.582 71.4805 144.144 72.2477 144.839 72.8845C145.534 73.5212 146.348 74.015 147.235 74.3376C149.618 75.1925 151.003 73.1163 150.475 70.7771C150.014 68.7103 148.224 65.7041 145.765 65.8826C143.307 66.0611 142.242 68.5036 143.184 70.6268Z" fill="#B97964"/>
<path d="M165.688 54.8723C165.688 54.8723 162.683 61.2981 161.412 60.3586C160.14 59.4192 162.532 57.8409 162.532 57.8409C162.532 57.8409 155.241 62.2187 154.243 61.5987C153.244 60.9787 158.011 58.5925 158.011 58.5925C158.011 58.5925 151.643 63.2897 150.164 61.5517C148.685 59.8138 159.65 53.4631 165.688 54.8723Z" fill="#263238"/>
<path d="M163.211 74.9017C162.902 75.7754 162.657 76.6702 162.477 77.5792H161.977C159.764 77.4758 158.765 76.6961 158.332 75.86C158.129 75.4516 158.029 75.0003 158.04 74.5448C158.038 74.2844 158.073 74.025 158.143 73.7744C159.487 74.4422 160.958 74.8169 162.458 74.8736L163.211 74.9017Z" fill="#263238"/>
<path d="M162.457 74.854L162.222 75.6338C160.121 75.5398 158.661 75.1828 158.039 74.5252C158.037 74.2649 158.072 74.0055 158.143 73.7549C159.486 74.4227 160.957 74.7974 162.457 74.854V74.854Z" fill="white"/>
<path d="M162.024 77.56C159.81 77.4567 158.812 76.6769 158.378 75.8408C159.221 75.8968 160.047 76.1003 160.818 76.4421C161.327 76.6806 161.748 77.0714 162.024 77.56V77.56Z" fill="#DE5753"/>
<path d="M164.134 57.1077C164.134 57.1077 168.514 48.3145 159.726 48.3145C150.937 48.3145 139.312 52.4574 143.269 63.4019C143.269 63.4019 151.182 57.4834 164.134 57.1077Z" fill="#263238"/>
<path d="M168.185 71.3217C168.1 72.9282 165.688 73.8864 165.688 73.8864C165.246 73.0409 162.457 73.8864 162.457 73.8864C161.268 73.2705 160.037 72.7369 158.774 72.2893C157.931 72.2252 157.084 72.2252 156.24 72.2893C154.356 71.519 150.051 67.2539 150.051 67.2539L149.222 67.9773L150.164 73.8864C148.487 78.856 151.624 82.9051 158.953 83.9197C166.282 84.9343 167.563 80.1619 168.307 77.5596C169.051 74.9574 168.185 71.3217 168.185 71.3217ZM163.211 80.9416C161.977 81.7589 162.457 79.1191 162.457 79.1191H160.14C160.14 79.1191 159.49 80.5846 158.02 79.1191C156.551 77.6536 157.418 73.1818 157.418 73.1818C158.887 72.8436 162.438 74.854 162.438 74.854C162.438 74.854 164.106 73.5482 165.001 74.6943C165.896 75.8404 164.445 80.1243 163.211 80.9416Z" fill="#263238"/>
<path d="M162.655 61.542C162.655 61.542 163.945 63.7967 162.655 63.947C161.506 64.0785 162.655 61.542 162.655 61.542Z" fill="#A24E3F"/>
<g opacity="0.2">
<path opacity="0.2" d="M218.798 167.126L220.758 171.636C219.42 171.363 217.866 171.016 216.17 170.537L213.608 164.646L222.764 162.147L221.427 157.45C222.741 157.619 224.068 157.679 225.392 157.629L227.427 164.797L218.798 167.126Z" fill="white"/>
</g>
<g opacity="0.2">
<path opacity="0.2" d="M210.81 162.957L213.128 169.599C212.383 169.345 211.62 169.072 210.848 168.762L208.314 161.51L218.346 159.631L217.451 156.521C218.148 156.741 218.856 156.926 219.571 157.076L220.73 161.106L210.81 162.957Z" fill="white"/>
</g>
<path d="M154.93 127.971C151.436 140.541 138.916 148.686 128.272 153.496C127.462 153.853 126.67 154.2 125.889 154.529C125.107 154.858 124.306 155.177 123.552 155.469C121.668 156.192 119.963 156.793 118.437 157.3C114.443 158.606 111.843 159.179 111.843 159.179L105.504 146.234C105.504 146.234 107.585 145.745 110.779 144.834C112.663 144.289 114.961 143.603 117.429 142.777C118.522 142.42 119.653 142.035 120.802 141.621C121.744 141.292 122.61 140.954 123.524 140.597C131.748 137.422 140.216 133.082 142.816 127.971C148.186 117.459 130.778 103.076 136.552 92.4976C136.678 92.2614 136.863 92.0615 137.089 91.9168C137.315 91.7721 137.575 91.6874 137.843 91.6709L146.321 91.2012C141.846 99.7125 161.345 104.926 154.93 127.971Z" fill="#376DC8"/>
<g opacity="0.2">
<path opacity="0.2" d="M123.572 155.401V155.467C121.688 156.19 119.983 156.792 118.457 157.299L110.647 153.955L114.246 145.791L110.808 144.851C112.692 144.306 114.99 143.621 117.458 142.794L119.446 143.348L115.621 152.019L123.572 155.401Z" fill="white"/>
</g>
<g opacity="0.2">
<path opacity="0.2" d="M128.272 153.495C127.462 153.852 126.671 154.2 125.889 154.529L117.665 151.053L122.488 142.222L120.811 141.621C121.753 141.292 122.62 140.954 123.534 140.597L125.201 141.198L120.321 150.132L128.272 153.495Z" fill="white"/>
</g>
</svg>
