<svg width="363" height="109" viewBox="0 0 363 109" fill="none" xmlns="http://www.w3.org/2000/svg">
<path d="M363 3.57953L361.207 0C171.841 94.2784 3.66719 1.01074 1.99008 0.0599228L0 3.5276C0.361102 3.73134 8.37757 8.17779 22.5689 14.1144L1.0472 73.9038L28.3907 63.9242L43.1437 88.9251L64.7256 28.9599C64.7697 28.9718 64.8098 28.9878 64.854 28.9998L73.7531 96.4916L112.584 40.1339L110.738 39.6945C111.492 39.8263 112.271 39.9502 113.029 40.078L112.612 40.0261L104.7 103.519L129.186 87.8224L149.079 109L156.983 45.5112L152.008 44.896C153.689 45.0238 155.382 45.1397 157.083 45.2475L181.546 108.812L205.868 45.6111L213.76 108.996L233.649 87.8184L258.14 103.515L250.284 40.4935C250.356 40.4815 250.416 40.4695 250.489 40.4575L289.09 96.4876L297.945 29.3354C298.034 29.3074 298.134 29.2795 298.222 29.2515L319.7 88.9251L334.457 63.9242L361.792 73.9038L340.255 14.0545C347.798 10.8465 355.373 7.3708 363 3.57953Z" fill="#c2600a"/>
</svg>
    